<svg width="34" height="34" viewBox="0 0 34 34" fill="none" xmlns="http://www.w3.org/2000/svg">
<g clip-path="url(#clip0_3746_682)">
<path d="M15.7345 0.0432127C27.5418 -0.764254 36.5099 10.001 33.3669 21.5498C29.7642 34.7836 12.5826 38.4128 3.88873 27.8204C-4.86887 17.152 2.06367 0.977311 15.7345 0.0432127ZM25.1756 14.0443C24.0592 13.8208 23.5181 13.2815 22.2786 13.6405C19.0348 14.5821 18.8524 19.0976 21.3031 21.1342C23.822 23.2273 30.6582 23.1826 31.4781 19.4269C33.2631 11.2584 26.6315 2.9632 18.4729 2.3509C8.09481 1.57174 0.447661 10.4568 2.77531 20.6336C8.68191 18.6909 10.7086 10.8889 16.7798 9.34248C18.7975 8.82851 20.8776 8.98345 22.7101 10.0233C24.0222 10.7682 25.5537 12.4353 25.1771 14.0443H25.1756ZM28.8494 25.5395C23.5374 26.6762 16.3409 23.3957 16.8628 17.1177L16.9814 15.7441C15.7849 16.7214 15.4677 18.1263 14.7353 19.4403C12.8272 22.8683 9.89021 25.5365 6.2149 26.931C10.759 32.035 18.252 33.1687 24.1912 29.8316C25.9925 28.82 27.7686 27.3108 28.8494 25.538V25.5395Z" fill="white"/>
</g>
<defs>
<clipPath id="clip0_3746_682">
<rect width="34" height="34" fill="white"/>
</clipPath>
</defs>
</svg>
